<svg width="19" height="19" viewBox="0 0 19 19" fill="none" xmlns="http://www.w3.org/2000/svg">
<path d="M9.16683 0.833252L8.08225 5.17158C7.87061 6.01812 7.76479 6.4414 7.5444 6.78583C7.34945 7.09048 7.09073 7.34921 6.78607 7.54416C6.44164 7.76455 6.01837 7.87037 5.17182 8.082L0.833496 9.16659L5.17182 10.2512C6.01837 10.4628 6.44164 10.5686 6.78607 10.789C7.09073 10.984 7.34946 11.2427 7.5444 11.5473C7.76479 11.8918 7.87061 12.315 8.08225 13.1616L9.16683 17.4999L10.2514 13.1616C10.463 12.315 10.5689 11.8918 10.7893 11.5473C10.9842 11.2427 11.2429 10.984 11.5476 10.789C11.892 10.5686 12.3153 10.4628 13.1618 10.2512L17.5002 9.16659L13.1618 8.082C12.3153 7.87037 11.892 7.76455 11.5476 7.54416C11.2429 7.34921 10.9842 7.09048 10.7893 6.78583C10.5689 6.4414 10.463 6.01813 10.2514 5.17158L9.16683 0.833252Z" stroke="currentColor" stroke-width="1.66667" stroke-linecap="round" stroke-linejoin="round"/>
</svg>
